<?xml version="1.0" encoding="iso-8859-1"?>
<!-- Uploaded to: SVG Repo, www.svgrepo.com, Generator: SVG Repo Mixer Tools -->
<svg height="800px" width="800px" version="1.1" id="Layer_1" xmlns="http://www.w3.org/2000/svg" xmlns:xlink="http://www.w3.org/1999/xlink" 
	 viewBox="0 0 511.994 511.994" xml:space="preserve">
<g>
	<path style="fill:#967ADC;" d="M189.105,179.097c-7.711,0-12.992-0.719-13.461-0.781c-5.836-0.82-9.898-6.211-9.086-12.047
		c0.82-5.828,6.203-9.891,12.031-9.078c0.312,0.039,20.312,2.633,37.453-3.602c17.46-6.358,33.397-22.312,33.562-22.476
		c4.141-4.18,10.89-4.219,15.078-0.086c4.188,4.141,4.234,10.883,0.102,15.07c-0.781,0.797-19.398,19.515-41.444,27.538
		C211.167,178.065,198.379,179.097,189.105,179.097z"/>
	<path style="fill:#967ADC;" d="M111.701,100.669c-5.57,0-10.257-4.32-10.632-9.961c-0.398-5.875,4.054-10.961,9.929-11.352
		c0.586-0.039,37.304-2.672,72.397-15.452c35.304-12.844,67.264-35.32,67.584-35.547c4.812-3.398,11.468-2.258,14.867,2.547
		c3.406,4.805,2.273,11.461-2.531,14.867c-1.398,0.984-34.554,24.328-72.623,38.179c-38.148,13.891-76.655,16.586-78.272,16.695
		C112.177,100.661,111.935,100.669,111.701,100.669z"/>
	<path style="fill:#967ADC;" d="M300.165,391.552c-1.328,0-2.688-0.25-3.984-0.781c-5.469-2.219-8.109-8.438-5.906-13.905
		c0.406-0.953,9.734-23.703,27.906-38.952c17.968-15.078,43.498-21.844,44.561-22.125c5.719-1.484,11.531,1.922,13.031,7.641
		c1.469,5.688-1.938,11.516-7.656,13c-0.188,0.062-21.999,5.875-36.218,17.827c-13.921,11.672-21.765,30.421-21.843,30.608
		C308.368,389.02,304.384,391.552,300.165,391.552z"/>
	<path style="fill:#967ADC;" d="M334.789,487.066c-2.047,0-4.108-0.578-5.921-1.797c-4.906-3.281-6.219-9.906-2.938-14.812
		c0.906-1.344,22.499-33.343,53.592-59.437c31.031-26.031,67.843-43.093,69.374-43.796c5.359-2.453,11.688-0.109,14.156,5.234
		c2.469,5.359,0.109,11.687-5.25,14.155c-0.344,0.156-35.78,16.594-64.562,40.75c-28.812,24.156-49.374,54.671-49.593,54.968
		C341.601,485.41,338.226,487.066,334.789,487.066z"/>
	<path style="fill:#967ADC;" d="M134.278,252.337c-3.555,0-7.031-1.781-9.055-5.016c-3.117-4.992-1.609-11.562,3.375-14.687l0,0
		c0.172-0.109,17.234-10.992,26.375-26.836c9.296-16.085,11.25-38.562,11.265-38.788c0.484-5.867,5.625-10.234,11.5-9.758
		c5.867,0.484,10.234,5.617,9.766,11.484c-0.094,1.109-2.32,27.405-14.055,47.733c-11.859,20.538-32.647,33.687-33.522,34.241
		C138.169,251.806,136.208,252.337,134.278,252.337z"/>
	<path style="fill:#967ADC;" d="M34.179,234.821c-2.805,0-5.602-1.102-7.695-3.28c-4.078-4.25-3.938-11.008,0.312-15.086
		c0.445-0.43,26.859-26.038,45.53-58.366c18.781-32.538,28.82-70.295,28.921-70.678c1.5-5.695,7.328-9.102,13.023-7.609
		c5.695,1.5,9.101,7.32,7.609,13.023c-0.43,1.648-10.828,40.843-31.078,75.928c-20.304,35.155-48.069,61.976-49.241,63.101
		C39.499,233.837,36.835,234.821,34.179,234.821z"/>
	<path style="fill:#967ADC;" d="M365.507,336.491c-4.484,0-8.672-2.859-10.141-7.375c-0.312-0.969-7.78-24.406-3.656-47.765
		c4.062-23.116,19.266-44.694,19.906-45.601c3.422-4.804,10.078-5.929,14.875-2.515c4.812,3.413,5.938,10.069,2.516,14.874
		c-0.109,0.172-13.078,18.641-16.297,36.944c-3.172,18.015,2.906,37.312,2.969,37.499c1.781,5.609-1.281,11.625-6.891,13.422
		C367.71,336.335,366.585,336.491,365.507,336.491z"/>
	<path style="fill:#967ADC;" d="M453.428,387.427c-5.375,0-10-4.062-10.578-9.53c-0.172-1.594-4.203-39.999,2.844-79.967
		c7.031-39.905,24.266-76.615,24.984-78.154c2.531-5.328,8.891-7.602,14.218-5.078c5.312,2.516,7.594,8.875,5.062,14.203
		c-0.156,0.352-16.733,35.726-23.249,72.716c-6.516,36.906-2.688,73.624-2.656,73.999c0.625,5.843-3.594,11.108-9.469,11.749
		C454.209,387.395,453.818,387.427,453.428,387.427z"/>
	<path style="fill:#967ADC;" d="M148.957,336.507c-1.094,0-2.203-0.172-3.297-0.516c-5.593-1.828-8.664-7.844-6.859-13.438l0,0
		c0.062-0.188,6.14-19.484,2.961-37.499c-2.695-15.296-12.68-31.858-16.297-36.944c-3.414-4.805-2.289-11.461,2.508-14.874
		c4.805-3.414,11.461-2.289,14.875,2.515c0.648,0.906,15.844,22.484,19.921,45.601c4.117,23.358-3.351,46.796-3.671,47.765
		C157.637,333.647,153.45,336.507,148.957,336.507z"/>
	<path style="fill:#967ADC;" d="M61.038,387.427c-0.383,0-0.773-0.031-1.164-0.062c-5.852-0.641-10.086-5.906-9.453-11.749l0,0
		c0.039-0.375,3.859-37.093-2.648-73.999c-6.539-37.092-23.101-72.364-23.265-72.716c-2.523-5.328-0.25-11.688,5.078-14.203
		c5.328-2.523,11.688-0.25,14.204,5.078c0.734,1.539,17.96,38.249,24.991,78.154c7.055,39.968,3.023,78.357,2.852,79.967
		C71.038,383.364,66.413,387.427,61.038,387.427z"/>
	<path style="fill:#967ADC;" d="M380.194,252.337c-1.938,0-3.891-0.523-5.641-1.625c-0.875-0.555-21.672-13.703-33.53-34.241
		c-11.733-20.328-13.968-46.624-14.062-47.733c-0.469-5.875,3.906-11.016,9.78-11.492c5.875-0.469,11.031,3.906,11.5,9.781
		c0,0.211,1.969,22.688,11.249,38.78c9.094,15.727,26.188,26.711,26.375,26.82c4.984,3.116,6.5,9.702,3.375,14.694
		C387.226,250.556,383.741,252.337,380.194,252.337z"/>
	<path style="fill:#967ADC;" d="M480.287,234.821c-2.641,0-5.312-0.984-7.375-2.968c-1.172-1.125-28.938-27.945-49.233-63.101
		c-20.25-35.085-30.656-74.279-31.094-75.928c-1.484-5.703,1.922-11.531,7.625-13.023c5.688-1.492,11.531,1.914,13.016,7.617
		c0.109,0.367,10.141,38.132,28.921,70.67c18.734,32.445,45.28,58.116,45.53,58.374c4.25,4.078,4.391,10.828,0.312,15.078
		C485.895,233.72,483.084,234.821,480.287,234.821z"/>
	<path style="fill:#967ADC;" d="M214.308,391.552c-4.211,0-8.203-2.531-9.891-6.656c-0.164-0.406-7.906-18.937-21.835-30.64
		c-11.898-9.983-30.187-16.249-36.234-17.827c-5.703-1.484-9.117-7.312-7.632-13c1.484-5.719,7.304-9.125,13.007-7.641
		c1.078,0.281,26.593,7.047,44.57,22.125c18.171,15.249,27.507,37.999,27.897,38.952c2.211,5.468-0.43,11.687-5.891,13.905
		C216.996,391.302,215.636,391.552,214.308,391.552z"/>
	<path style="fill:#967ADC;" d="M179.684,487.082c-3.438,0-6.805-1.672-8.867-4.75l0,0c-0.203-0.297-20.882-30.874-49.577-54.968
		c-28.867-24.219-64.225-40.594-64.577-40.75c-5.352-2.469-7.703-8.796-5.242-14.155c2.461-5.344,8.797-7.688,14.148-5.234
		c1.546,0.703,38.343,17.765,69.381,43.796c31.093,26.094,52.687,58.093,53.593,59.437c3.273,4.906,1.961,11.531-2.93,14.812
		C183.793,486.488,181.73,487.082,179.684,487.082z"/>
	<path style="fill:#967ADC;" d="M325.368,179.097c-9.281,0-22.062-1.031-34.219-5.461c-22.062-8.031-40.678-26.741-41.459-27.538
		c-4.133-4.195-4.086-10.945,0.109-15.086c4.195-4.133,10.945-4.086,15.085,0.109c0.148,0.148,16.093,16.109,33.546,22.468
		c17.078,6.211,37.249,3.625,37.437,3.602c5.844-0.82,11.219,3.25,12.047,9.086c0.812,5.828-3.25,11.227-9.078,12.039
		C338.367,178.386,333.086,179.097,325.368,179.097z"/>
	<path style="fill:#967ADC;" d="M402.772,100.669c-0.234,0-0.469-0.008-0.719-0.023c-1.625-0.109-40.125-2.805-78.279-16.688
		c-38.062-13.858-71.217-37.202-72.616-38.187c-4.805-3.406-5.938-10.062-2.531-14.875c3.406-4.805,10.062-5.938,14.867-2.531
		c0.32,0.219,32.28,22.695,67.593,35.547c35.311,12.851,72.029,15.421,72.389,15.444c5.875,0.391,10.328,5.477,9.922,11.352
		C413.022,96.349,408.335,100.669,402.772,100.669z"/>
	<path style="fill:#967ADC;" d="M214.55,391.708c-3.992,0-7.82-2.25-9.641-6.094c-2.531-5.343-0.266-11.687,5.055-14.218
		c1.008-0.469,24.898-11.703,48.366-11.703c23.726,0,45.507,11.422,46.413,11.922c5.203,2.75,7.188,9.218,4.422,14.405
		c-2.766,5.219-9.203,7.188-14.422,4.438c-0.281-0.156-18.188-9.438-36.413-9.438c-15.523,0-33.569,6.969-39.21,9.641
		C217.644,391.364,216.081,391.708,214.55,391.708z"/>
	<path style="fill:#967ADC;" d="M334.617,487.144c-0.969,0-1.969-0.156-2.968-0.438c-0.594-0.172-35.984-10.25-73.319-10.25
		c-37.562,0-75.287,10.188-75.662,10.297c-5.68,1.547-11.555-1.797-13.102-7.484c-1.555-5.672,1.789-11.531,7.469-13.094
		c1.641-0.438,40.781-11.03,81.295-11.03c40.601-0.016,77.693,10.624,79.256,11.077c5.656,1.641,8.922,7.562,7.281,13.219
		C343.508,484.113,339.242,487.144,334.617,487.144z"/>
</g>
<g>
	<path style="fill:#434A54;" d="M287.837,101.63c1.016,5.797-2.844,11.327-8.656,12.351c-5.812,1.023-11.335-2.844-12.358-8.647
		c-1.023-5.805,2.852-11.336,8.655-12.359C281.274,91.95,286.806,95.825,287.837,101.63z"/>
	<path style="fill:#434A54;" d="M170.668,103.481c0,5.891-4.781,10.663-10.671,10.663c-5.891,0-10.664-4.772-10.664-10.663
		s4.773-10.664,10.664-10.664C165.887,92.817,170.668,97.591,170.668,103.481z"/>
	<path style="fill:#434A54;" d="M447.99,338.147c0,5.875-4.781,10.655-10.656,10.655c-5.906,0-10.687-4.78-10.687-10.655
		c0-5.906,4.78-10.688,10.687-10.688C443.209,327.46,447.99,332.241,447.99,338.147z"/>
	<path style="fill:#434A54;" d="M404.741,188.808c0,5.891-4.781,10.671-10.656,10.671c-5.906,0-10.672-4.78-10.672-10.671
		s4.766-10.664,10.672-10.664C399.96,178.143,404.741,182.917,404.741,188.808z"/>
	<path style="fill:#434A54;" d="M146.856,380.958c1.023,5.812-2.852,11.344-8.656,12.375c-5.805,1.016-11.336-2.859-12.359-8.656
		c-1.023-5.812,2.852-11.343,8.656-12.358S145.832,375.178,146.856,380.958z"/>
	<path style="fill:#434A54;" d="M309.165,421.614c1.016,5.812-2.859,11.344-8.641,12.359c-5.812,1.016-11.344-2.859-12.375-8.641
		c-1.016-5.812,2.859-11.343,8.656-12.374C302.618,411.942,308.149,415.818,309.165,421.614z"/>
	<path style="fill:#434A54;" d="M213.167,229.627c1.023,5.796-2.852,11.327-8.648,12.351c-5.804,1.023-11.335-2.852-12.359-8.647
		c-1.023-5.805,2.852-11.336,8.656-12.359C206.613,219.947,212.144,223.822,213.167,229.627z"/>
	<path style="fill:#434A54;" d="M106.372,250.485c1.023,5.797-2.851,11.328-8.648,12.352c-5.805,1.023-11.336-2.852-12.359-8.648
		c-1.023-5.805,2.852-11.336,8.656-12.359C99.818,240.806,105.349,244.681,106.372,250.485z"/>
</g>
<g>
	<path style="fill:#AC92EB;" d="M471.725,398.724c-1.812,0-3.641-0.453-5.328-1.422l-215.738-124.56
		c-5.102-2.944-6.844-9.468-3.898-14.569c2.946-5.101,9.468-6.852,14.57-3.906l215.738,124.552
		c5.109,2.952,6.843,9.468,3.891,14.577C478.99,396.802,475.396,398.724,471.725,398.724z"/>
	<path style="fill:#AC92EB;" d="M256.01,274.18c-0.617,0-1.242-0.062-1.867-0.172L8.82,230.752
		c-5.805-1.023-9.68-6.555-8.656-12.359c1.023-5.797,6.562-9.672,12.359-8.648l245.323,43.257c5.805,1.023,9.68,6.555,8.656,12.359
		C265.588,270.532,261.088,274.18,256.01,274.18z"/>
	<path style="fill:#AC92EB;" d="M255.987,274.18c-5.086,0-9.586-3.647-10.5-8.827c-1.016-5.797,2.852-11.328,8.656-12.352
		l245.315-43.257c5.812-1.023,11.343,2.852,12.374,8.648c1.016,5.805-2.859,11.336-8.656,12.359l-245.33,43.256
		C257.221,274.117,256.596,274.18,255.987,274.18z"/>
	<path style="fill:#AC92EB;" d="M40.272,398.724c-3.688,0-7.273-1.922-9.25-5.328c-2.945-5.109-1.195-11.625,3.906-14.577
		l215.73-124.552c5.109-2.945,11.632-1.195,14.578,3.906c2.946,5.101,1.195,11.625-3.906,14.569L45.593,397.302
		C43.914,398.27,42.078,398.724,40.272,398.724z"/>
	<path style="fill:#AC92EB;" d="M255.987,274.18c-2.414,0-4.852-0.828-6.844-2.508c-4.516-3.78-5.109-10.515-1.32-15.022
		L407.96,65.818c3.781-4.516,10.5-5.102,15.016-1.312c4.515,3.781,5.108,10.515,1.328,15.022L264.166,270.36
		C262.057,272.867,259.033,274.18,255.987,274.18z"/>
	<path style="fill:#AC92EB;" d="M170.793,508.268c-1.211,0-2.445-0.219-3.648-0.656c-5.531-2.016-8.39-8.125-6.375-13.671
		l85.201-234.081c2.016-5.539,8.141-8.391,13.671-6.383c5.539,2.016,8.391,8.141,6.375,13.672l-85.201,234.088
		C179.238,505.581,175.152,508.268,170.793,508.268z"/>
	<path style="fill:#AC92EB;" d="M255.994,274.18c-5.89,0-10.664-4.788-10.664-10.679V14.389c0-5.891,4.773-10.663,10.664-10.663
		c5.891,0,10.664,4.772,10.664,10.663v249.112C266.658,269.392,261.885,274.18,255.994,274.18z"/>
	<path style="fill:#AC92EB;" d="M341.195,508.268c-4.359,0-8.453-2.703-10.015-7.031l-85.209-234.088
		c-2.016-5.531,0.844-11.656,6.375-13.672c5.539-2.008,11.656,0.844,13.671,6.383l85.192,234.081
		c2.031,5.546-0.827,11.655-6.374,13.671C343.648,508.05,342.398,508.268,341.195,508.268z"/>
	<path style="fill:#AC92EB;" d="M256.002,274.18c-3.046,0-6.07-1.312-8.179-3.819L87.701,79.528
		c-3.789-4.508-3.203-11.241,1.312-15.022c4.516-3.789,11.242-3.203,15.031,1.312l160.121,190.831
		c3.789,4.508,3.195,11.242-1.312,15.022C260.853,273.351,258.416,274.18,256.002,274.18z"/>
</g>
</svg>